<?xml version="1.0" standalone="no"?>
<!DOCTYPE svg PUBLIC "-//W3C//DTD SVG 20010904//EN"
 "http://www.w3.org/TR/2001/REC-SVG-20010904/DTD/svg10.dtd">
<svg version="1.0" xmlns="http://www.w3.org/2000/svg"
 width="260.000000pt" height="260.000000pt" viewBox="0 0 260.000000 260.000000"
 preserveAspectRatio="xMidYMid meet">
<metadata>
Created by potrace 1.14, written by Peter Selinger 2001-2017
</metadata>
<g transform="translate(0.000000,260.000000) scale(0.100000,-0.100000)"
fill="#000000" stroke="none">
<path d="M1531 2113 c-11 -10 -39 -69 -62 -133 -48 -135 -69 -190 -105 -285
-14 -38 -26 -78 -26 -87 0 -10 -4 -18 -10 -18 -5 0 -8 -7 -4 -15 3 -8 1 -15
-5 -15 -6 0 -7 -4 -4 -10 3 -5 1 -10 -4 -10 -6 0 -10 -3 -10 -7 1 -5 0 -10 -1
-13 -1 -3 -3 -12 -5 -20 -4 -16 -61 -174 -72 -200 -3 -8 -7 -17 -7 -20 -1 -3
-9 -25 -18 -50 -32 -87 -110 -305 -113 -315 -1 -5 -5 -18 -9 -27 -4 -9 -9 -22
-10 -30 -1 -7 -8 -24 -16 -38 -7 -14 -13 -26 -12 -27 1 -2 2 -4 1 -5 0 -2 -2
-10 -4 -18 -2 -8 -9 -28 -16 -45 -7 -16 -13 -33 -14 -37 -2 -5 -3 -9 -5 -10
-1 -2 -3 -10 -5 -18 -2 -8 -11 -33 -19 -55 -28 -75 -21 -85 65 -85 59 0 61 2
119 160 23 63 54 147 68 185 15 39 27 75 28 80 1 11 8 30 35 93 10 23 16 42
13 42 -3 0 1 10 8 23 6 12 13 28 14 35 1 8 6 21 10 30 4 9 8 19 9 22 5 20 29
87 34 95 3 6 6 12 7 15 0 3 3 12 6 20 39 104 141 399 143 410 0 3 4 11 8 18 5
7 11 24 13 39 3 15 9 32 13 38 8 9 32 76 37 100 1 6 14 41 28 79 14 37 26 77
26 87 0 39 -90 54 -129 22z"/>
<path d="M715 1690 c-60 -33 -220 -115 -355 -184 -135 -68 -251 -130 -257
-138 -19 -24 -18 -98 2 -128 6 -8 120 -70 255 -137 135 -68 295 -150 355 -183
116 -63 139 -70 149 -44 8 22 7 107 -2 120 -4 6 -131 73 -282 149 -151 76
-283 143 -293 150 -17 12 15 30 275 160 161 80 296 152 300 158 10 17 8 110
-4 125 -16 18 -24 16 -143 -48z"/>
<path d="M1764 1703 c-13 -88 -19 -83 301 -245 160 -80 293 -148 297 -150 3
-1 -126 -70 -289 -153 -162 -82 -299 -158 -304 -167 -18 -32 -7 -128 14 -128
22 0 732 362 747 381 15 19 19 78 7 114 -4 13 -40 37 -94 64 -49 23 -213 108
-366 187 -153 79 -284 144 -292 144 -9 0 -16 -16 -21 -47z"/>
</g>
</svg>
